<?xml version="1.0" ?><svg id="Layer_1" style="enable-background:new 0 0 50 50;" version="1.1" viewBox="0 0 50 50" xml:space="preserve" xmlns="http://www.w3.org/2000/svg" xmlns:xlink="http://www.w3.org/1999/xlink"><style type="text/css">
	.st0{fill:#001935;}
</style><path class="st0" d="M42.7878418,24.390686c-0.0251465-0.381958-0.0593872-0.760437-0.1084595-1.135498  c-0.053894-0.4116821-0.105957-0.8240356-0.1876831-1.2263794c-0.0678711-0.3340454-0.1636963-0.6572876-0.2501221-0.9842529  c-0.0975342-0.3688965-0.1995239-0.7350464-0.3198853-1.0941772c-0.1029663-0.3074341-0.2147217-0.6105957-0.3338623-0.9102783  c-0.1327515-0.3337402-0.2792969-0.6592407-0.4313354-0.9827271c-0.1312256-0.2790527-0.2564087-0.5614014-0.4015503-0.8323364  c-0.1628418-0.3041382-0.3469238-0.5941162-0.5267334-0.8873291c-0.1575317-0.256897-0.3082275-0.5178833-0.4782104-0.7659302  c-0.1906738-0.2781982-0.3994751-0.5422974-0.6052856-0.8087769c-0.1790771-0.2319946-0.3581543-0.4629517-0.5482788-0.6856079  c-0.2168579-0.2539063-0.442749-0.4995117-0.6733398-0.7407227c-0.2028198-0.2122803-0.411377-0.4176636-0.6244507-0.6196899  c-0.2421875-0.2296143-0.4859619-0.4575195-0.7407227-0.6733398c-0.2236938-0.1893921-0.4578857-0.3651733-0.6907959-0.5435181  c-0.267334-0.2047119-0.5297852-0.4155884-0.8088379-0.6051636c-0.2490845-0.1691895-0.5130615-0.3165894-0.7709351-0.4732056  c-0.2945557-0.178894-0.5873413-0.359375-0.8927612-0.5213013c-0.2715454-0.1439209-0.5525513-0.2714844-0.8321533-0.4014893  c-0.3250122-0.151062-0.6532593-0.2940674-0.9885254-0.4255981c-0.300293-0.1178589-0.6022949-0.2321167-0.9102783-0.3338013  c-0.3609009-0.1191406-0.7299805-0.2174072-1.100647-0.3134766c-0.3290405-0.0853271-0.6553955-0.1762695-0.9914551-0.2427368  c-0.4030762-0.0797729-0.8140869-0.1358643-1.2263794-0.1876831c-0.3776245-0.0474854-0.7597046-0.0767212-1.1442261-0.0999146  c-0.3573608-0.0216064-0.711792-0.0544434-1.0744629-0.0544434c-0.1013794,0-0.1994019,0.0134888-0.300354,0.0151978  c-0.4370728,0.0073242-0.8709717,0.0272217-1.2998657,0.0656738c-0.5559692,0.0498047-1.1027832,0.1289673-1.6429443,0.2288818  c-0.5524292,0.1021118-1.0942383,0.2315063-1.6275635,0.3834839c-0.7491455,0.213501-1.4806519,0.4663086-2.1860962,0.7720337  c-4.1479492,1.7977295-7.4782104,5.1252441-9.2682495,9.2683105c-0.3032227,0.7018433-0.5505371,1.4309692-0.7617798,2.1759033  c-0.1509399,0.5321655-0.2788696,1.072876-0.3798218,1.6239624c-0.0986938,0.5388794-0.1762695,1.0842896-0.2246704,1.6387939  c-0.0375366,0.4293213-0.0599976,0.8626709-0.0661011,1.3000488c-0.0011597,0.0834351-0.0125732,0.1642456-0.0125732,0.2479248  c0,0.3786621,0.0333862,0.7489624,0.0568848,1.1218262C7.4375,27.0666504,7.4690552,27.4470215,7.517334,27.8234863  c0.0528564,0.4119263,0.1072388,0.8234253,0.1879272,1.2261353c0.0671997,0.335022,0.1603394,0.6598511,0.2461548,0.987793  c0.0968018,0.369873,0.1965942,0.7376099,0.3162842,1.0977173c0.1022949,0.3076172,0.2156982,0.6100464,0.3341675,0.9099731  c0.1320801,0.3345947,0.2764893,0.6618042,0.4280396,0.986084c0.1306152,0.27948,0.2575073,0.5609131,0.4020386,0.8322144  c0.1623535,0.3048706,0.3441772,0.5965576,0.5234985,0.890564c0.1570435,0.2574463,0.3053589,0.5205078,0.4749756,0.769165  c0.1899414,0.2786255,0.4005737,0.5413208,0.6057129,0.8083496c0.1786499,0.2324829,0.3552246,0.4657593,0.5449219,0.6890259  c0.2161865,0.2544556,0.4438477,0.4984131,0.6738281,0.7402344c0.2023315,0.2128296,0.4083862,0.4205933,0.6209106,0.62323  c0.2415771,0.2302246,0.4870605,0.4563599,0.7412109,0.6728516c0.2229614,0.1898804,0.4544678,0.3683472,0.6866455,0.5472412  c0.2667847,0.2055054,0.5308228,0.4143677,0.8092651,0.6047974c0.24823,0.1697998,0.5095825,0.3201294,0.7666626,0.477478  c0.293396,0.1795654,0.5836792,0.3634033,0.8879395,0.526123c0.2710571,0.1449585,0.5535278,0.2700806,0.8327026,0.4011841  c0.3236084,0.1519775,0.6491089,0.2984009,0.9829712,0.4310913c0.2997437,0.1190796,0.6031494,0.2305298,0.9106445,0.3334961  c0.3590698,0.1203003,0.7250977,0.2225342,1.0939331,0.3201294c0.3268433,0.0864258,0.6495972,0.1829224,0.9834595,0.2509155  c0.4023438,0.0819092,0.8149414,0.1332397,1.2266235,0.187439c0.3745117,0.0492554,0.7523193,0.0844116,1.1337891,0.1099243  c0.3966675,0.0265503,0.7915039,0.0604858,1.1948242,0.0604858c0.0564575,0,0.1109009-0.0079346,0.1672363-0.0084839  c0.4379272-0.0040894,0.8703003-0.0304565,1.3001709-0.065979c0.5509644-0.0455933,1.0929565-0.1194458,1.6286011-0.2145386  c0.5463867-0.0969849,1.0824585-0.2202759,1.6104736-0.366333c0.7306519-0.2020874,1.4487305-0.4341431,2.1385498-0.7245483  c4.2677612-1.796814,7.6906738-5.2189941,9.4901123-9.4901733c0.2906494-0.6899414,0.522522-1.4085083,0.7252197-2.1393433  c0.1465454-0.5285645,0.2705688-1.0653076,0.3681641-1.6123047c0.0957031-0.536377,0.1703491-1.0789795,0.2166138-1.6306763  c0.0359497-0.4295044,0.0610352-0.8619995,0.0657349-1.2994995c0.0007324-0.0652466,0.0098267-0.1283569,0.0098267-0.1937256  C42.847168,25.1663208,42.8134766,24.779541,42.7878418,24.390686z M41.4214478,21.8646851  c0.0776978,0.3424683,0.1376343,0.6904297,0.1939087,1.0404663L30.7685547,33.7519531v-1.234375L41.4214478,21.8646851z   M26.9140625,34.9882813c-2.1767578,0-4.7719727-0.828125-4.7719727-4.7719727v-6.4536133h-2.7446289v-2.3476563  c2.8295898-0.9042969,4.1044922-3.3320313,4.3837891-5.5107422h2.1821289v5.1118164h3.659668v2.746582h-3.659668v5.6845703  c0,1.6948242,0.8759766,2.5908203,2.5332031,2.5908203h1.2719727v2.9501953H26.9140625z M18.8902588,20.5128174l3.6630859-3.6630249  C22.072998,18.4225464,20.9413452,19.9318848,18.8902588,20.5128174z M26.9633789,25.7104492l0.9477539-0.9477539h1.2338867  l-2.1816406,2.1816406V25.7104492z M40.8094482,19.8184814c0.1121826,0.3052979,0.2277222,0.6085815,0.3222656,0.921875  L30.7685547,31.1035156v-0.0654297h-1.1787109L40.8094482,19.8184814z M40.006958,17.9730225  c0.1402588,0.2738037,0.2762451,0.5500488,0.4015503,0.8323364L28.192749,31.0211182  c-0.3922729-0.0367432-0.6832886-0.1471558-0.8800659-0.3538208L40.006958,17.9730225z M39.0310059,16.2907715  c0.1675415,0.2505493,0.3162842,0.513916,0.470459,0.7736816L26.9710693,29.5948486  c-0.0018921-0.0502319-0.0076904-0.0943604-0.0076904-0.147583v-1.0888672l3.5957031-3.5957031h0.0639648v-0.0639648  L39.0310059,16.2907715z M37.8897705,14.7840576c0.18927,0.2237549,0.3641357,0.4586182,0.541687,0.6921997l-7.8084106,7.8084106  v-1.2338867L37.8897705,14.7840576z M36.5918579,13.4237671c0.2133789,0.2016602,0.421936,0.4070435,0.6245117,0.6196289  l-6.5933228,6.5933228v-0.6206055h-0.6235352L36.5918579,13.4237671z M35.1538696,12.2134399  c0.2346191,0.1766968,0.4724731,0.3485718,0.6972656,0.5369873l-7.265686,7.265686h-1.2341309L35.1538696,12.2134399z   M33.5606079,11.1484985c0.260498,0.1530151,0.5223999,0.3039551,0.7736816,0.470459l-7.3709106,7.3710327v-1.2441406  L33.5606079,11.1484985z M31.8144531,10.2469482c0.2828979,0.1240845,0.5576782,0.2625122,0.8322144,0.4014893l-5.6832886,5.6833496  v-1.2338257L31.8144531,10.2469482z M29.8671875,9.5360107c0.3150024,0.0933838,0.6212769,0.2045898,0.9283447,0.3157959  l-5.0525513,5.0524902h-1.2441406L29.8671875,9.5360107z M15.4372559,11.9389648l-4.0097046,4.0097656  C12.5270996,14.395813,13.8837891,13.0406494,15.4372559,11.9389648z M9.6445923,19.145752l9.0045166-9.0045776  c0.6119385-0.2564697,1.2470093-0.4653931,1.8930664-0.6489868L8.9972534,21.0372925  C9.1797485,20.3916626,9.3886719,19.7573853,9.6445923,19.145752z M8.5971069,22.8515015L22.3597412,9.0886841  c0.4657593-0.0775757,0.9354248-0.140686,1.413208-0.1790161L8.4225464,24.2600708  C8.4595947,23.7839966,8.5206909,23.3156738,8.5971069,22.8515015z M8.3650513,25.7316284L25.2491455,8.8475342  c0.3990479,0.0029297,0.7921143,0.02948,1.1841431,0.0599976L8.4251709,26.9156494  C8.3934937,26.5239868,8.3690796,26.1303711,8.3650513,25.7316284z M8.7714233,29.2174072  c-0.0769653-0.3434448-0.1345215-0.6929932-0.1899414-1.0440063L27.6952515,9.0596313  c0.3520508,0.0546265,0.703125,0.1102905,1.0476074,0.1865845l-5.6581421,5.6580811h-0.2263184l-0.015686,0.2419434  L8.7714233,29.2174072z M9.380188,31.2668457c-0.1116943-0.3062134-0.2247314-0.6112671-0.3186646-0.9254761l9.3359375-9.3357544  v1.2440796L9.380188,31.2668457z M10.1798706,33.1154785c-0.1395874-0.274292-0.2774048-0.5495605-0.4020386-0.8322144  l8.6196289-8.6195068v1.098938h0.1350708L10.1798706,33.1154785z M11.1530762,34.8005371  c-0.1669312-0.2509155-0.3174438-0.5131226-0.4709473-0.7732544l9.2644653-9.2645874h1.1954956v0.048645L11.1530762,34.8005371z   M12.2877808,36.3137817c-0.1887817-0.2243652-0.3613892-0.4614258-0.5383911-0.6955566l9.3927002-9.3928223v1.2340698  L12.2877808,36.3137817z M13.5826416,37.677124c-0.2128906-0.2023315-0.4189453-0.4100952-0.6209717-0.6231689l8.1804199-8.1804199  v1.2441406L13.5826416,37.677124z M15.0170288,38.890686c-0.2338257-0.1772461-0.4691162-0.3517456-0.6931763-0.5407104  l6.9100342-6.9100342c0.0524292,0.354187,0.1378784,0.6812744,0.2368164,0.9970703L15.0170288,38.890686z M16.6065063,39.9594116  c-0.2599487-0.1539307-0.5233154-0.3027344-0.7740479-0.4700928l6.06073-6.06073  c0.1472778,0.2662964,0.3206177,0.5075684,0.5100708,0.7340698L16.6065063,39.9594116z M18.3483887,40.8654785  c-0.2824097-0.1252441-0.5587158-0.2611084-0.8327026-0.4011841l5.6112061-5.6112061  c0.2342529,0.178772,0.4875488,0.3363037,0.7608032,0.4730835L18.3483887,40.8654785z M20.2834473,41.588623  c-0.3132324-0.0946045-0.616394-0.2103271-0.9216919-0.3224487l5.5513306-5.5513306  c0.3291626,0.0900269,0.6742554,0.15979,1.0426025,0.2015381L20.2834473,41.588623z M22.4476929,42.0728149  c-0.3497925-0.0564575-0.6973267-0.1170044-1.0396118-0.1947632l5.8897705-5.8897705h1.234375L22.4476929,42.0728149z   M34.4349365,39.4638062l4.5627441-4.5628052C37.7855835,36.7007446,36.2335205,38.2519531,34.4349365,39.4638062z   M40.6002808,31.8842773l-9.1818237,9.1820068c-0.6062622,0.2476807-1.2329102,0.4519043-1.8719482,0.6278076l11.6825562-11.6827393  C41.0526123,30.6507568,40.8482666,31.277832,40.6002808,31.8842773z M41.6173706,28.2090454l-13.871521,13.8716431  c-0.4609985,0.0731201-0.9261475,0.1300659-1.3986816,0.1644897l15.4368896-15.4366455  C41.7490234,27.2817383,41.6911011,27.7474365,41.6173706,28.2090454z M24.8834839,42.2948608  c-0.3982544-0.0057373-0.7926636-0.0267944-1.1838379-0.0599365l6.2466431-6.2466431h0.8222656v-0.8222656L41.776062,24.1585083  c0.0327759,0.3913574,0.0548096,0.7855225,0.0599976,1.18396L24.8834839,42.2948608z"/></svg>